<?xml version="1.0" encoding="utf-8"?>
<!-- Generator: Adobe Illustrator 19.0.0, SVG Export Plug-In . SVG Version: 6.00 Build 0)  -->
<svg version="1.1" id="Layer_1" xmlns="http://www.w3.org/2000/svg" xmlns:xlink="http://www.w3.org/1999/xlink" x="0px" y="0px"
	 viewBox="0 0 1280 147.6" style="enable-background:new 0 0 1280 147.6;" xml:space="preserve">
<style type="text/css">
	.st0{fill:#CE1919;}
</style>
<g id="XMLID_1_">
	<g id="XMLID_944_">
		<path id="XMLID_1045_" d="M25.5,20.8v28.3H20V20.8H25.5z"/>
		<path id="XMLID_1043_" d="M30.4,49.1V20.8h5l4.4,11.1c0.8,2.2,2.2,5.8,3,8.3h0.1c-0.2-3-0.5-7.9-0.5-13.1v-6.3h4.8v28.3h-5
			l-4.3-10.8c-0.9-2.4-2.2-6-2.9-8.5h-0.1c0.1,2.9,0.3,7.2,0.3,12.9v6.4H30.4z"/>
		<path id="XMLID_1040_" d="M52.1,21.2c1.4-0.3,3.4-0.5,5.6-0.5c3.6,0,6,0.8,7.9,2.5c2.4,2.2,3.7,5.9,3.7,11.4c0,5.7-1.5,9.8-3.9,12
			c-1.9,1.8-4.7,2.7-8.7,2.7c-1.7,0-3.4-0.2-4.5-0.3V21.2z M57.6,44.7c0.3,0.1,0.7,0.1,1,0.1c2.6,0,5-2.6,5-10.4
			c0-5.8-1.5-9.3-4.8-9.3c-0.4,0-0.8,0-1.1,0.1V44.7z"/>
		<path id="XMLID_1038_" d="M78.2,20.8v28.3h-5.5V20.8H78.2z"/>
		<path id="XMLID_1035_" d="M87.6,42.6l-1.3,6.5H81l6.1-28.3h6.6l5.5,28.3h-5.3l-1.2-6.5H87.6z M92.2,38.4l-0.9-5.9
			c-0.3-1.7-0.7-4.5-0.9-6.4h-0.1c-0.3,1.9-0.7,4.8-1,6.5l-1,5.9H92.2z"/>
		<path id="XMLID_1033_" d="M102.4,49.1V20.8h5l4.4,11.1c0.8,2.2,2.2,5.8,3,8.3h0.1c-0.2-3-0.5-7.9-0.5-13.1v-6.3h4.8v28.3h-5
			l-4.3-10.8c-0.9-2.4-2.2-6-2.9-8.5h-0.1c0.1,2.9,0.3,7.2,0.3,12.9v6.4H102.4z"/>
		<path id="XMLID_1031_" d="M136.2,20.8v28.3h-5.5V20.8H136.2z"/>
		<path id="XMLID_1029_" d="M141.1,49.1V20.8h5l4.4,11.1c0.8,2.2,2.2,5.8,3,8.3h0.1c-0.2-3-0.5-7.9-0.5-13.1v-6.3h4.8v28.3h-5
			l-4.3-10.8c-0.9-2.4-2.2-6-2.9-8.5h-0.1c0.1,2.9,0.3,7.2,0.3,12.9v6.4H141.1z"/>
		<path id="XMLID_1027_" d="M162.2,43.5c1.1,0.6,3.1,1.1,4.7,1.1c2.6,0,3.9-1.3,3.9-3.2c0-2.1-1.3-3.1-3.7-4.6
			c-3.9-2.4-5.3-5.3-5.3-7.9c0-4.5,3-8.3,8.9-8.3c1.8,0,3.6,0.5,4.5,1l-0.9,4.7c-0.8-0.5-2-1-3.6-1c-2.4,0-3.5,1.4-3.5,2.9
			c0,1.7,0.8,2.6,3.9,4.4c3.7,2.3,5.1,5.1,5.1,8.1c0,5.2-3.8,8.6-9.4,8.6c-2.3,0-4.5-0.6-5.4-1.1L162.2,43.5z"/>
		<path id="XMLID_1025_" d="M182.4,25.9h-5v-5.1H193v5.1h-5v23.2h-5.5V25.9z"/>
		<path id="XMLID_1023_" d="M201.4,20.8v28.3h-5.5V20.8H201.4z"/>
		<path id="XMLID_1021_" d="M209.3,25.9h-5v-5.1h15.5v5.1h-5v23.2h-5.5V25.9z"/>
		<path id="XMLID_1019_" d="M228.1,20.8v18.4c0,4.2,1.3,5.4,2.7,5.4c1.6,0,2.7-1.1,2.7-5.4V20.8h5.5v17.4c0,7.3-2.7,11.2-8.2,11.2
			c-5.9,0-8.2-4.1-8.2-11.2V20.8H228.1z"/>
		<path id="XMLID_1017_" d="M246.9,25.9h-5v-5.1h15.5v5.1h-5v23.2h-5.5V25.9z"/>
		<path id="XMLID_1015_" d="M272.3,36.7h-6.5v7.6h7.3v4.8h-12.8V20.8h12.3v4.8h-6.8v6.5h6.5V36.7z"/>
		<path id="XMLID_1012_" d="M300.2,34.4c0,10.7-3.8,15-9.2,15c-6.4,0-8.9-6.8-8.9-14.6c0-7.7,3.1-14.4,9.3-14.4
			C298.3,20.5,300.2,28,300.2,34.4z M287.8,34.9c0,6.4,1.2,9.7,3.4,9.7c2.3,0,3.2-4.2,3.2-10c0-5-0.8-9.5-3.2-9.5
			C289.1,25.2,287.8,28.9,287.8,34.9z"/>
		<path id="XMLID_1010_" d="M303.7,20.8H316v4.8h-6.8v7.3h6.4v4.6h-6.4v11.7h-5.5V20.8z"/>
		<path id="XMLID_1008_" d="M332.4,20.8v28.3h-5.5V20.8H332.4z"/>
		<path id="XMLID_1006_" d="M337.3,49.1V20.8h5l4.4,11.1c0.8,2.2,2.2,5.8,3,8.3h0.1c-0.2-3-0.5-7.9-0.5-13.1v-6.3h4.8v28.3h-5
			l-4.3-10.8c-0.9-2.4-2.2-6-2.9-8.5h-0.1c0.1,2.9,0.3,7.2,0.3,12.9v6.4H337.3z"/>
		<path id="XMLID_1004_" d="M358.9,20.8h12.3v4.8h-6.8v7.3h6.4v4.6h-6.4v11.7h-5.5V20.8z"/>
		<path id="XMLID_1001_" d="M392.1,34.4c0,10.7-3.8,15-9.2,15c-6.4,0-8.9-6.8-8.9-14.6c0-7.7,3.1-14.4,9.3-14.4
			C390.2,20.5,392.1,28,392.1,34.4z M379.7,34.9c0,6.4,1.2,9.7,3.4,9.7c2.3,0,3.2-4.2,3.2-10c0-5-0.8-9.5-3.2-9.5
			C381,25.2,379.7,28.9,379.7,34.9z"/>
		<path id="XMLID_998_" d="M395.6,21.2c1.7-0.3,3.9-0.5,6-0.5c3,0,5.7,0.4,7.6,2.1c1.7,1.6,2.2,3.4,2.2,5.9c0,3-1.5,5.8-4.4,7.1v0.1
			c1.9,0.8,2.9,2.6,3.4,5.6c0.5,3.2,1.3,6.6,1.8,7.7h-5.8c-0.3-0.8-1-3.7-1.4-6.8c-0.5-3.5-1.4-4.5-3.2-4.5h-0.8v11.3h-5.5V21.2z
			 M401.1,33.6h1c2.4,0,3.8-1.9,3.8-4.4c0-2.4-1-4.1-3.4-4.2c-0.5,0-1,0-1.3,0.2V33.6z"/>
		<path id="XMLID_996_" d="M432.7,39.2c-0.1-2.7-0.3-6.3-0.3-9.4h-0.1c-0.5,3-1.3,6.5-1.8,8.7L428,48.6h-3.9l-2.4-10
			c-0.5-2.3-1.3-5.8-1.7-8.9h-0.1c-0.1,3.1-0.3,6.6-0.4,9.5l-0.5,9.8h-4.7l2.1-28.3h5.8l2.3,10.3c0.8,3.6,1.5,6.7,2,9.9h0.1
			c0.4-3.2,1.1-6.3,1.8-9.9l2.2-10.3h5.8l1.7,28.3h-4.9L432.7,39.2z"/>
		<path id="XMLID_993_" d="M446.6,42.6l-1.3,6.5H440l6.1-28.3h6.6l5.5,28.3h-5.3l-1.2-6.5H446.6z M451.2,38.4l-0.9-5.9
			c-0.3-1.7-0.7-4.5-0.9-6.4h-0.1c-0.3,1.9-0.7,4.8-1,6.5l-1,5.9H451.2z"/>
		<path id="XMLID_991_" d="M462.3,25.9h-5v-5.1h15.5v5.1h-5v23.2h-5.5V25.9z"/>
		<path id="XMLID_989_" d="M481.3,20.8v28.3h-5.5V20.8H481.3z"/>
		<path id="XMLID_986_" d="M502.9,34.4c0,10.7-3.8,15-9.2,15c-6.4,0-8.9-6.8-8.9-14.6c0-7.7,3.1-14.4,9.3-14.4
			C501,20.5,502.9,28,502.9,34.4z M490.5,34.9c0,6.4,1.2,9.7,3.4,9.7c2.3,0,3.2-4.2,3.2-10c0-5-0.8-9.5-3.2-9.5
			C491.7,25.2,490.5,28.9,490.5,34.9z"/>
		<path id="XMLID_984_" d="M506.4,49.1V20.8h5l4.4,11.1c0.8,2.2,2.2,5.8,3,8.3h0.1c-0.2-3-0.5-7.9-0.5-13.1v-6.3h4.8v28.3h-5
			l-4.3-10.8c-0.9-2.4-2.2-6-2.9-8.5h-0.1c0.1,2.9,0.3,7.2,0.3,12.9v6.4H506.4z"/>
		<path id="XMLID_982_" d="M537.3,25.9h-5v-5.1h15.5v5.1h-5v23.2h-5.5V25.9z"/>
		<path id="XMLID_980_" d="M562.7,36.7h-6.5v7.6h7.3v4.8h-12.8V20.8h12.3v4.8h-6.8v6.5h6.5V36.7z"/>
		<path id="XMLID_978_" d="M580.9,48.7c-0.8,0.4-2.4,0.7-4.3,0.7c-7.2,0-10.7-6-10.7-14c0-10.7,5.9-14.8,11.4-14.8
			c1.9,0,3.3,0.4,3.8,0.8l-0.9,4.6c-0.6-0.3-1.3-0.5-2.6-0.5c-3.1,0-5.9,2.7-5.9,9.7c0,6.8,2.6,9.4,5.9,9.4c0.9,0,2-0.2,2.6-0.4
			L580.9,48.7z"/>
		<path id="XMLID_976_" d="M589.4,20.8v11.3h5.8V20.8h5.5v28.3h-5.5V37.3h-5.8v11.8h-5.5V20.8H589.4z"/>
		<path id="XMLID_974_" d="M605.5,49.1V20.8h5l4.4,11.1c0.8,2.2,2.2,5.8,3,8.3h0.1c-0.2-3-0.5-7.9-0.5-13.1v-6.3h4.8v28.3h-5
			L613,38.4c-0.9-2.4-2.2-6-2.9-8.5H610c0.1,2.9,0.3,7.2,0.3,12.9v6.4H605.5z"/>
		<path id="XMLID_971_" d="M643.9,34.4c0,10.7-3.8,15-9.2,15c-6.4,0-8.9-6.8-8.9-14.6c0-7.7,3.1-14.4,9.3-14.4
			C642,20.5,643.9,28,643.9,34.4z M631.5,34.9c0,6.4,1.2,9.7,3.4,9.7c2.3,0,3.2-4.2,3.2-10c0-5-0.8-9.5-3.2-9.5
			C632.7,25.2,631.5,28.9,631.5,34.9z"/>
		<path id="XMLID_969_" d="M647.4,20.8h5.5v23.7h7.3v4.7h-12.8V20.8z"/>
		<path id="XMLID_966_" d="M678.9,34.4c0,10.7-3.8,15-9.2,15c-6.4,0-8.9-6.8-8.9-14.6c0-7.7,3.1-14.4,9.3-14.4
			C677,20.5,678.9,28,678.9,34.4z M666.6,34.9c0,6.4,1.2,9.7,3.4,9.7c2.3,0,3.2-4.2,3.2-10c0-5-0.8-9.5-3.2-9.5
			C667.8,25.2,666.6,28.9,666.6,34.9z"/>
		<path id="XMLID_964_" d="M698.1,48.3c-1.2,0.5-3.8,1-5.9,1c-3.2,0-5.7-0.9-7.6-2.8c-2.4-2.4-3.7-6.6-3.7-11.4
			c0.1-10.3,6-14.6,12-14.6c2.1,0,3.7,0.4,4.6,0.8l-1,4.7c-0.8-0.4-1.8-0.6-3.2-0.6c-3.7,0-6.7,2.6-6.7,10c0,6.8,2.6,9.2,5.2,9.2
			c0.5,0,0.9,0,1.1-0.1v-6.8h-2.5v-4.5h7.6V48.3z"/>
		<path id="XMLID_962_" d="M705.4,49.1V38.3l-6.2-17.5h5.9l1.9,6.8c0.5,1.8,1,3.9,1.5,6h0.1c0.3-2.1,0.8-4.1,1.3-6.1l1.7-6.6h5.7
			l-6.3,17.3v11H705.4z"/>
		<path id="XMLID_960_" d="M714.3,54.4c1.2-3.5,2.4-7.9,2.8-11.2l5.6-0.4c-1.3,3.8-3,8.2-4.9,11.2L714.3,54.4z"/>
		<path id="XMLID_958_" class="st0" d="M732.7,20.8h5.5v23.7h7.3v4.7h-12.8V20.8z"/>
		<path id="XMLID_956_" class="st0" d="M753.2,20.8v18.4c0,4.2,1.3,5.4,2.7,5.4c1.6,0,2.7-1.1,2.7-5.4V20.8h5.5v17.4
			c0,7.3-2.7,11.2-8.2,11.2c-5.9,0-8.2-4.1-8.2-11.2V20.8H753.2z"/>
		<path id="XMLID_954_" class="st0" d="M782.4,48.7c-0.8,0.4-2.4,0.7-4.3,0.7c-7.2,0-10.7-6-10.7-14c0-10.7,5.9-14.8,11.4-14.8
			c1.9,0,3.3,0.4,3.8,0.8l-0.9,4.6c-0.6-0.3-1.3-0.5-2.6-0.5c-3.1,0-5.9,2.7-5.9,9.7c0,6.8,2.6,9.4,5.9,9.4c0.9,0,2-0.2,2.6-0.4
			L782.4,48.7z"/>
		<path id="XMLID_952_" class="st0" d="M785.5,20.8h5.5v12.7h0.1c0.5-1.2,0.9-2.4,1.4-3.7l3.8-9.1h6l-6.3,12.3l6.4,16h-6l-4.1-11.7
			l-1.3,2.3v9.4h-5.5V20.8z"/>
		<path id="XMLID_950_" class="st0" d="M804.7,49.1V20.8h5l4.4,11.1c0.8,2.2,2.2,5.8,3,8.3h0.1c-0.2-3-0.5-7.9-0.5-13.1v-6.3h4.8
			v28.3h-5l-4.3-10.8c-0.9-2.4-2.2-6-2.9-8.5h-0.1c0.1,2.9,0.3,7.2,0.3,12.9v6.4H804.7z"/>
		<path id="XMLID_947_" class="st0" d="M843.1,34.4c0,10.7-3.8,15-9.2,15c-6.4,0-8.9-6.8-8.9-14.6c0-7.7,3.1-14.4,9.3-14.4
			C841.2,20.5,843.1,28,843.1,34.4z M830.7,34.9c0,6.4,1.2,9.7,3.4,9.7c2.3,0,3.2-4.2,3.2-10c0-5-0.8-9.5-3.2-9.5
			C831.9,25.2,830.7,28.9,830.7,34.9z"/>
		<path id="XMLID_945_" class="st0" d="M849.5,49.1l-4.8-28.3h5.7l1.4,11.3c0.4,3.2,0.6,6.5,1,9.9h0.1c0.4-3.5,1-6.6,1.6-10l2-11.3
			h4.5l1.9,11.2c0.5,3.2,1,6.3,1.3,10h0.1c0.4-3.7,0.7-6.7,1.1-10l1.4-11.2h5.4l-5,28.3h-5.7l-1.7-9.3c-0.5-2.6-0.9-5.8-1.3-9.3
			h-0.1c-0.5,3.4-1,6.6-1.6,9.3l-1.9,9.2H849.5z"/>
	</g>
</g>
<g id="XMLID_2_">
	<path id="XMLID_19_" d="M33.7,97.2l0.4-0.5h13.1l1.7,3.5l-0.4,0.5h-4.4l0.1,22.5l-0.4,0.3l-4-1.2l0.1-9.1c-3,0-5.5,0.1-7.5,0.4
		c-0.7,2.6-1.8,4.1-3.1,4.1c-1,0-2.3-0.7-3.6-2.2c-1.2-1.2-1.9-2.4-1.9-3.5c0-1.6,1.6-2.5,4.7-3c0.2-0.8,0.2-2.1,0.2-5.1
		c0-3.7-0.6-5.4-2.4-5.4c-1.1,0-2.4,1-2.4,2.6s1.1,2.8,2.9,3.7l-0.6,1.1c-1.5-0.3-2.9-0.7-4.1-1.2c-1.9-1.4-2.9-3.2-2.9-5
		c0-2.4,1.9-4.6,4.9-4.6c1.7,0,3.5,0.7,5.4,2.3c2.2,1.9,3.4,3.7,3.4,8.2c0,1.1,0,2.2-0.1,3.4c2.4,0,4.6,0,7,0.2v-8.5h-4.5L33.7,97.2
		z"/>
	<path id="XMLID_21_" d="M46.4,97.2l0.4-0.5h11.3l1.7,3.5l-0.4,0.5H55l0.1,22.5l-0.4,0.3l-4.1-1.2l0.1-21.6h-2.7L46.4,97.2z"/>
	<path id="XMLID_23_" d="M57.3,97.2l0.4-0.5h18.2l1.7,3.5l-0.4,0.5h-5.8c0.2,1.1,0.3,2.1,0.3,3.1c0,5.1-2.3,7.6-5.5,9.4
		c2.1,2.3,5.4,4.3,9.4,6.2l-2,4.3h-0.4c-5.2-3.9-9.2-7.9-11.7-12.4c-0.6-1.1-1-2.1-1-2.6c0-0.4,0.1-0.9,0.4-1.4
		c0.4-0.7,1.2-1.1,2.4-1.1c1.2,0,2.4,0,3.1,0.1c0.6-0.7,0.9-1.9,0.9-3.8c0-0.7-0.1-1.3-0.2-1.9H59L57.3,97.2z"/>
	<path id="XMLID_25_" d="M75,97.2l0.4-0.5h24.1l1.7,3.5l-0.4,0.5h-4.4l0.1,22.5l-0.4,0.3l-4-1.2l0.1-13.8h-2.1
		c-3.9,0-5.7,0.5-6.8,1.3s-1.6,1.9-1.6,3.1c0,2.6,2.1,4.1,6.6,6.6l-1.8,4l-0.4,0.1c-4.2-3.1-8.1-8.5-8.1-13.1c0-2.7,1.4-6.3,8.3-6.3
		c2.1,0,4.1,0.1,5.9,0.1v-3.7H76.7L75,97.2z"/>
	<path id="XMLID_27_" d="M98.7,97.2l0.4-0.5h4.1c-0.3-5.2-2-8-5.5-8c-2.2,0-3.5,1.4-3.5,3.4c0,1.1,0.5,2.3,1.4,3.4l-0.4,0.6
		l-3.8-1.7c-1.2-1.4-1.7-3-1.7-4.5c0-3,2.4-5,5.8-5c3,0,5.9,1.6,8.5,5.2c1.4,2,2.4,4.2,3,6.7h3.3l1.7,3.5l-0.4,0.5h-4.4l0.1,22.5
		l-0.4,0.3l-4.1-1.2l0.1-21.6h-2.7L98.7,97.2z"/>
	<path id="XMLID_29_" d="M109.6,97.2l0.4-0.5h24.5l1.7,3.5l-0.4,0.5h-4.4l0.1,22.5l-0.4,0.3l-4-1.2l0.1-5.9
		c-1.2,0.7-2.5,1.1-4.1,1.1c-5,0-8.8-3.6-11.3-10.7l0.3-0.5c3.6-0.8,6.1-1.8,6.1-3.9c0-0.7-0.2-1.2-0.6-1.8h-6.2L109.6,97.2z
		 M127.2,100.7h-6.6c0.8,1.5,1.4,2.9,1.4,4.5c0,2.5-2.1,3.9-5.7,4.8c0.5,2.1,2.2,3.2,5,3.2c1.6,0,3.2-0.5,4.5-1.5
		c0.8-0.7,1.3-1.6,1.3-3V100.7z"/>
	<path id="XMLID_32_" d="M144.1,97.2l0.4-0.5h27.3l1.7,3.5l-0.4,0.5h-4.4l0.1,22.5l-0.4,0.3l-4-1.2l0.1-8.8
		c-1.1,0.1-2.2,0.2-3.4,0.2c-1.7,0-4.1-0.5-5.9-1.4c-0.7,1.1-2,2-2.9,2.6c2,2.1,5.1,4,9,5.8l-1.9,4.2H159
		c-4.2-3.2-7.9-6.7-10.4-10.5c-1.3-2-1.9-3.5-1.9-4.5c0-1.4,0.9-2.7,2.6-2.7c0.6,0,1.5,0.1,2.1,0.2c0.3-0.9,0.4-2.1,0.4-3.4
		c0-1.3-0.1-2.5-0.3-3.5h-5.7L144.1,97.2z M155.5,100.7c0.4,2,0.5,3.8,0.5,5.5c0,1,0,1.8-0.1,2.6c1.2,0.2,2.6,0.4,4.1,0.4
		c1.8,0,3.3-0.2,4.5-0.5v-8.1H155.5z"/>
	<path id="XMLID_35_" d="M171.5,132.3l0,0.3c-1.2,2-2.8,2.7-4.5,2.7c-3,0-6.7-3.3-6.7-6.3c0-2.7,2.4-4.6,5.4-4.6
		c3.8,0,7.5,2.7,13.6,8.9l-1.2,1.7h-0.3c-4.2-4.6-7.7-7.2-10.2-7.2c-2.3,0-3.9,1.5-3.9,2.9c0,0.7,0.5,1.4,1.5,1.4
		c1.2,0,2.3-0.7,3.3-2.5L171.5,132.3z"/>
	<path id="XMLID_37_" d="M170.9,97.2l0.4-0.5h28.8l1.7,3.5l-0.4,0.5H197l0.1,22.5l-0.4,0.3l-4-1.2l0.1-5.4c-1.7,1.2-3.3,1.5-4.8,1.5
		c-2.3,0-4.7-0.8-7.1-3.4c-1.7-1.8-2.6-3.5-2.6-5.6c0-0.5,0.1-1.1,0.3-1.6h-3.3l-1.8-3.6l0.4-0.5h14.8l1.8,3.6l-0.3,0.3h-3.4
		c-2.7,0-4.2,1.6-4.2,3.8c0,2,1.5,2.8,3.1,2.8c2.1,0,3.8-0.7,5.4-2c1-0.9,1.7-2.1,1.7-3.9v-7.7h-20.2L170.9,97.2z"/>
	<path id="XMLID_39_" d="M199.3,97.2l0.4-0.5h24l1.7,3.5l-0.4,0.5h-4.4l0.1,22.5l-0.4,0.3l-4-1.2l0.1-12c-1.2-0.1-2.1-0.1-3.3-0.1
		c-1.4,0-2.9,0.1-3.7,0.4c0.2,1.2,0.2,2.1,0.2,2.8c0,0.9-0.1,1.5-0.7,2c-0.5,0.4-1,0.6-1.5,0.6c-0.9,0-2-0.7-3.5-2.2
		c-1.4-1.5-2.1-2.8-2.1-3.9c0-0.7,0.4-4,7.1-4c2.1,0,4.6,0.2,7.5,0.6v-5.7H201L199.3,97.2z"/>
	<path id="XMLID_41_" d="M222.8,97.2l0.4-0.5h11.3l1.7,3.5l-0.4,0.5h-4.4l0.1,22.5l-0.4,0.3l-4.1-1.2l0.1-21.6h-2.7L222.8,97.2z"/>
	<path id="XMLID_43_" d="M244.2,97.2l0.4-0.5H269l1.7,3.5l-0.4,0.5h-4.4l0.1,22.5l-0.4,0.3l-4-1.2l0.1-7.4l-0.1,0
		c-2.3,1.6-6,4.2-10.4,7l-4.1-2.7V119l7.2-4.5v-0.1c-3.8-1.9-4.9-3.9-4.9-9.1c0-1.6,0.1-3.1,0.1-4.6h-3.6L244.2,97.2z M261.8,100.7
		H254c-0.1,1.7-0.1,3.5-0.1,5.2c0,5.2,1.1,6.3,2.8,6.3c1.7,0,3.8-1.1,5.1-2.5V100.7z"/>
	<path id="XMLID_46_" d="M268.2,97.2l0.4-0.5h5.3l0.1-0.1c-2.2-2.4-4.3-3.9-6.6-3.9c-1.7,0-3.6,0.8-5.7,2l-0.2-0.1l-2.4-3.8
		c1.8-1.1,3.9-1.9,5.5-1.9c2.4,0,4.7,1.2,8,3.9l0.1-0.1c-0.3-1.6-0.6-2.8-0.9-3.6c-0.7-1.9-1.9-2.7-4.6-2.7c-1.1,0-2.3,0.1-3.8,0.5
		l-0.2-0.1l-1.3-4.4c1.4-0.3,2.8-0.4,4.1-0.4c3.5,0,5,1.4,6.8,4.7c1.4,2.6,2.2,5.4,3.1,10.2h4l1.7,3.5l-0.4,0.5h-4.4l0.1,22.5
		l-0.4,0.3l-4.1-1.2l0.1-21.6h-2.7L268.2,97.2z"/>
	<path id="XMLID_48_" d="M279,97.2l0.4-0.5h28.7l1.7,3.5l-0.4,0.5h-4.4l0.1,26.6l-0.4,0.3l-4.1-1.2l0.1-4.3c-1.5,1-3.6,1.7-5.6,1.7
		c-2.1,0-4.3-0.9-6.2-2.9c-1.7-1.8-2.6-3.5-2.6-5.1c0-0.5,0.1-1,0.5-1.7c-2.6-2.1-4.4-4.3-4.4-6.4c0-3.1,2.6-4.1,6-4.1h4.5v-3h-12.2
		L279,97.2z M300.9,100.7h-3.8l0.1,6.6l-0.4,0.5c-1.5,0-3.4-0.1-5.4-0.1c-3.5,0-4.8,1-4.8,2.2c0,1.2,1.5,1.8,3.6,1.8
		c1.5,0,3.1,0,4.6-0.1l1.9,3.6l-0.2,0.3c-4.5,0.1-6.4,1.1-6.4,2.6c0,1.2,1.4,1.8,2.9,1.8c1.6,0,7.8-0.8,7.8-6.5V100.7z"/>
	<path id="XMLID_51_" d="M307.3,97.2l0.4-0.5h4.4c-1.9-5-3-8.1-6.7-8.1c-1.9,0-3.5,0.3-4.9,0.7h-0.1l-1.9-4.8
		c1.7-0.5,3.4-0.7,5.3-0.7c5.1,0,7,4,11.1,12.8h4.2l1.7,3.5l-0.4,0.5h-4.4l0.1,22.5l-0.4,0.3l-4.1-1.2l0.1-21.6H309L307.3,97.2z"/>
	<path id="XMLID_53_" d="M318.2,97.2l0.4-0.5h4.8c-1.2-1.5-1.9-2.8-1.9-4.4c0-3.5,2.9-7.2,8.8-7.2c5.1,0,10.7,2.7,17,8.9l-1.1,1.7
		h-0.3c-4.1-3.9-8.4-6.3-12.9-6.3c-4.4,0-7.2,2.7-7.2,5.7c0,0.7,0.2,1.2,0.4,1.6h3.9l1.7,3.5l-0.4,0.5h-4.4l0.1,22.5l-0.4,0.3
		l-4.1-1.2l0.1-21.6h-2.7L318.2,97.2z"/>
	<path id="XMLID_55_" d="M329,97.2l0.4-0.5h25.4l1.7,3.5l-0.4,0.5h-4.4l0.1,22.5l-0.4,0.3l-4.1-1.2l0.1-21.6h-7.4
		c0.2,2.6,0.3,4.8,0.3,6.7c0,4-0.4,6.3-1.3,7.9c-0.7,1-1.5,1.4-2.3,1.4c-0.8,0-1.9-0.7-3.2-2.1c-1.1-1.2-1.9-2.5-1.9-3.5
		c0-0.6,0.2-1.1,0.5-1.5c0.6-0.7,1.9-1,4-1.2c0.2-1.1,0.2-2.2,0.2-3.4c0-1.3-0.1-2.9-0.3-4.2h-5.3L329,97.2z"/>
	<path id="XMLID_57_" d="M354,97.2l0.4-0.5h31.1l1.7,3.5l-0.4,0.5h-13v6.1l0.1,0.1c1.3-1,2.8-1.5,4.1-1.5c1.9,0,3.4,0.8,4.7,2.2
		c1.5,1.6,2.1,3.4,2.1,5.3c0,2.6-1.2,5.5-3.2,8h-0.4l-3.8-2.9c2.2-2.7,3.8-5.5,3.8-7.5c0-0.9-0.4-1.4-1.3-1.4c-1.8,0-4.1,1.7-6.1,4
		l0.1,10.1l-0.4,0.3l-3.9-1.2l0.1-5.7l-0.1,0c-1.3,1-2.7,1.3-4.2,1.3c-2.7,0-4.4-1.3-6.2-3.2c-1.3-1.5-2.3-3.4-2.3-5.2
		c0-3.7,3-6.1,6.9-6.1c1.6,0,3.5,0.3,5.8,1v-3.7h-14L354,97.2z M369.7,107.6c-0.7-0.2-1.6-0.2-2.5-0.2c-4.2,0-6.2,2.2-6.2,4.6
		c0,1.4,1,2,2.7,2c2,0,4-1,5.9-3V107.6z"/>
	<path id="XMLID_60_" d="M384.6,97.2l0.4-0.5h4c-1-5.7-4.1-9.2-9.6-9.2c-4.3,0-7.1,2-7.1,5.1c0,1.1,0.3,2.1,0.9,2.9l-0.4,0.6
		l-3.7-1.7c-0.7-1.2-1.2-2.5-1.2-4c0-3.7,3-6.7,8.7-6.7c3.6,0,6.6,1.2,9.5,3.1c3.2,2.1,5.7,5.6,7,9.8h3.2l1.7,3.5l-0.4,0.5h-4.4
		l0.1,22.5l-0.4,0.3l-4.1-1.2l0.1-21.6h-2.7L384.6,97.2z"/>
	<path id="XMLID_62_" d="M406,97.2l0.4-0.5h27.3l1.7,3.5l-0.4,0.5h-4.4l0.1,22.5l-0.4,0.3l-4-1.2l0.1-8.8c-1.1,0.1-2.2,0.2-3.4,0.2
		c-1.7,0-4.1-0.5-5.9-1.4c-0.7,1.1-2,2-2.9,2.6c2,2.1,5.1,4,9,5.8l-1.9,4.2h-0.4c-4.2-3.2-7.9-6.7-10.4-10.5c-1.3-2-1.9-3.5-1.9-4.5
		c0-1.4,0.9-2.7,2.6-2.7c0.6,0,1.5,0.1,2.1,0.2c0.3-0.9,0.4-2.1,0.4-3.4c0-1.3-0.1-2.5-0.3-3.5h-5.7L406,97.2z M417.4,100.7
		c0.4,2,0.5,3.8,0.5,5.5c0,1,0,1.8-0.1,2.6c1.2,0.2,2.6,0.4,4.1,0.4c1.8,0,3.3-0.2,4.5-0.5v-8.1H417.4z"/>
	<path id="XMLID_65_" d="M422.1,87.3l3.5,3.5l-3.5,3.5l-3.5-3.5L422.1,87.3z"/>
	<path id="XMLID_67_" d="M432.8,97.2l0.4-0.5h18.7c0.9-1,2.2-1.7,4.1-1.7c2,0,3.8,1.2,5.4,3.3c1.6,2.1,2.1,3.7,2.1,5.2
		c0,3.9-2.9,5.5-7.2,7.2c0.6,1.8,2,2.7,4.4,2.7c1.6,0,3.2-0.6,4.5-1.5c1.4-1,2.1-2,2.1-4.3v-6.9h-2.2l-1.7-3.5l0.4-0.5h10.8l1.7,3.5
		l-0.4,0.5h-4.4l0.1,22.5l-0.4,0.3l-4-1.2l0.1-6c-1.4,0.9-3,1.4-4.8,1.4c-2.9,0-5.7-1.5-8-4.4c-1.5,0.3-3,0.4-4.6,0.4
		c-1.7,0-4.1-0.5-5.9-1.4c-0.7,1.1-2,2-2.9,2.6c2,2.1,5.1,4,9,5.8l-1.9,4.2h-0.4c-4.2-3.2-7.9-6.7-10.4-10.5c-1.3-2-1.9-3.5-1.9-4.5
		c0-1.4,0.9-2.7,2.6-2.7c0.6,0,1.5,0.1,2.1,0.2c0.3-0.9,0.4-2.1,0.4-3.4c0-1.3-0.1-2.5-0.3-3.5h-5.7L432.8,97.2z M450.9,100.7h-6.7
		c0.4,2,0.5,3.8,0.5,5.5c0,1,0,1.8-0.1,2.6c1.2,0.2,2.6,0.4,4.1,0.4c1.2,0,2.3-0.1,3.3-0.2c-0.2-0.3-0.3-0.7-0.4-1l0.3-0.6
		c5.1-1.9,8.5-3.2,8.5-6.4c0-1.2-0.9-2.2-2.5-2.2c-2.1,0-3.1,1.5-3.1,2.9c0,0.9,0.7,1.8,1.9,2.7l-0.4,0.9l-3-1.1
		C451.9,103.1,451.2,101.9,450.9,100.7z"/>
	<path id="XMLID_70_" d="M473.7,97.2l0.4-0.5h11.3l1.7,3.5l-0.4,0.5h-4.4l0.1,22.5l-0.4,0.3l-4.1-1.2l0.1-21.6h-2.7L473.7,97.2z"/>
	<path id="XMLID_72_" d="M484.6,97.2l0.4-0.5h24l1.7,3.5l-0.4,0.5h-4.4l0.1,22.5l-0.4,0.3l-4-1.2l0.1-12c-1.2-0.1-2.1-0.1-3.3-0.1
		c-1.4,0-2.9,0.1-3.7,0.4c0.2,1.2,0.2,2.1,0.2,2.8c0,0.9-0.1,1.5-0.7,2c-0.5,0.4-1,0.6-1.5,0.6c-0.9,0-2-0.7-3.5-2.2
		c-1.4-1.5-2.1-2.8-2.1-3.9c0-0.7,0.4-4,7.1-4c2.1,0,4.6,0.2,7.5,0.6v-5.7h-15.4L484.6,97.2z"/>
	<path id="XMLID_74_" d="M519.4,121.4c0,4.4-3.9,6.9-7.6,7.8l-0.6-1.8c2.7-1.1,4.2-2.4,4.2-4.4c0-1.7-1.3-3-3.3-3.5
		c-0.3-0.1-0.7-0.5-0.7-1.5c0-1.4,1.3-2.4,2.8-2.4C516.4,115.5,519.4,117.7,519.4,121.4z"/>
	<path id="XMLID_76_" class="st0" d="M530.5,97.2l0.4-0.5h28.5l1.7,3.5l-0.4,0.5h-4.4l0.1,22.5l-0.4,0.3l-4-1.2l0.1-14.2
		c-4.1,1.1-5.1,2.8-6.1,6.3h-0.4l-3.4-2.3c0.4-1.8,1-3.3,1.9-4.4c-0.5-0.2-1.1-0.4-1.8-0.4c-2.5,0-4.6,2.3-4.6,5.2
		c0,3.3,2.6,5.4,7.5,7l-1.2,4l-0.3,0.1c-5.2-2.7-10-8.3-10-13.6c0-4.2,2.8-6.6,6.2-6.6c2.3,0,3.8,0.9,6,2.7c1.5-1,3.5-1.8,6.3-2.3
		v-3.1h-19.9L530.5,97.2z"/>
	<path id="XMLID_78_" class="st0" d="M558.5,97.2l0.4-0.5h32.4l1.7,3.5l-0.4,0.5h-4.4l0.1,22.5l-0.4,0.3l-4-1.2l0.1-5.6
		c-0.8,0.4-1.5,0.6-2.5,0.6c-1.8,0-3.8-0.8-5.8-2.5c-2-1.9-3.1-3.9-3.1-6c0-3.4,2.3-5.7,6.2-5.7c1.7,0,3.3,0.3,5.2,0.9v-3.3h-13.4
		c0.1,1.2,0.2,2.4,0.2,3.7c0,3.9-1.4,6.7-3.7,8.6c2.6,2.5,6.3,4.5,10.5,6.1l-1.9,4.6h-0.3c-6.3-4.1-11.1-8.6-13.8-13.4
		c-0.3-0.5-0.4-1-0.4-1.5c0-0.6,0.3-1.2,0.7-1.7c0.4-0.4,1-0.6,2.1-0.6c0.6,0,1.1,0,2,0.1c0.5-0.9,0.8-2,0.8-3.9
		c0-0.7-0.1-1.3-0.1-2h-6.3L558.5,97.2z M584.1,106.9c-0.8-0.1-1.3-0.1-1.9-0.1c-2.8,0-5.5,1.7-5.5,4.2c0,1.5,1,2.5,2.9,2.5
		c1.1,0,2.1-0.3,3.1-1s1.4-1.4,1.4-2.8V106.9z"/>
	<path id="XMLID_81_" class="st0" d="M590.4,97.2l0.4-0.5h24l1.7,3.5l-0.4,0.5h-4.4l0.1,22.5l-0.4,0.3l-4-1.2l0.1-12
		c-1.2-0.1-2.1-0.1-3.3-0.1c-1.4,0-2.9,0.1-3.7,0.4c0.2,1.2,0.2,2.1,0.2,2.8c0,0.9-0.1,1.5-0.7,2c-0.5,0.4-1,0.6-1.5,0.6
		c-0.9,0-2-0.7-3.5-2.2c-1.4-1.5-2.1-2.8-2.1-3.9c0-0.7,0.4-4,7.1-4c2.1,0,4.6,0.2,7.5,0.6v-5.7h-15.4L590.4,97.2z"/>
	<path id="XMLID_83_" class="st0" d="M614,97.2l0.4-0.5h31.4l1.7,3.5l-0.4,0.5h-14c0.2,1.2,0.4,2.5,0.4,3.2c0,1.9-0.5,3.2-1.3,4.3
		c0.3,0.3,0.5,0.6,0.8,0.9c1.8-1.2,3.5-1.9,5.3-1.9c1.6,0,3.1,0.9,4.5,2.4c1.9,2,2.6,3.8,2.6,5.8c0,2.5-1,5-2.6,7.6h-0.3l-4.1-2.7
		c2-3,3.3-5.6,3.3-7.3c0-1.2-0.4-1.8-1.4-1.8c-1.5,0-3.1,0.9-4.8,2.4c0.2,0.8,0.3,1.6,0.3,2.3c0,3.8-3.5,6.8-7.7,6.8
		c-4.1,0-8.4-3.7-12-12v-0.4l2-1.1c2.4,5.6,5.3,8.9,8.7,8.9c2.7,0,5.5-2.6,5.5-5.3c0-1.4-0.9-2.1-2.7-2.1c-1,0-2.9,0.4-5.2,1
		l-2.7-3.8l0.3-0.5c5.5-1.2,7.5-1.9,7.5-5.5c0-0.5,0-0.9-0.1-1.3h-13.6L614,97.2z"/>
</g>
<g id="XMLID_14_">
</g>
<g id="XMLID_17_">
</g>
<g id="XMLID_18_">
</g>
<g id="XMLID_208_">
</g>
<g id="XMLID_209_">
</g>
<g id="XMLID_210_">
</g>
<g id="XMLID_211_">
</g>
<g id="XMLID_212_">
</g>
<g id="XMLID_213_">
</g>
<g id="XMLID_214_">
</g>
<g id="XMLID_215_">
</g>
<g id="XMLID_216_">
</g>
<g id="XMLID_217_">
</g>
<g id="XMLID_218_">
</g>
<g id="XMLID_219_">
</g>
</svg>
