<?xml version="1.0" encoding="utf-8"?>
<!-- Generator: Adobe Illustrator 19.0.0, SVG Export Plug-In . SVG Version: 6.00 Build 0)  -->
<svg version="1.1" id="Layer_1" xmlns="http://www.w3.org/2000/svg" xmlns:xlink="http://www.w3.org/1999/xlink" x="0px" y="0px"
	 viewBox="0 0 1280 200" style="enable-background:new 0 0 1280 200;" xml:space="preserve">
<style type="text/css">
	.st0{fill:#CE1919;}
	.st1{fill:none;}
</style>
<g id="XMLID_1_">
	<path id="XMLID_4_" d="M41.7,43.5v43.8h-8.5V43.5H41.7z"/>
	<path id="XMLID_7_" d="M49.3,87.3V43.5h7.8l6.8,17.2c1.3,3.4,3.4,9,4.7,12.8h0.1c-0.3-4.6-0.8-12.2-0.8-20.3v-9.7h7.5v43.8h-7.8
		l-6.7-16.6c-1.4-3.7-3.4-9.2-4.4-13.2h-0.1c0.2,4.4,0.5,11.2,0.5,20v9.9H49.3z"/>
	<path id="XMLID_9_" d="M82.8,44.1c2.1-0.5,5.3-0.8,8.6-0.8c5.5,0,9.4,1.3,12.2,3.9c3.8,3.4,5.7,9.2,5.7,17.7
		c0,8.8-2.3,15.1-6.1,18.5c-2.9,2.9-7.3,4.2-13.4,4.2c-2.7,0-5.3-0.3-7-0.5V44.1z M91.4,80.5c0.4,0.1,1,0.1,1.5,0.1
		c4.1,0,7.7-4,7.7-16.1c0-9-2.3-14.4-7.5-14.4c-0.6,0-1.2,0-1.7,0.2V80.5z"/>
	<path id="XMLID_12_" d="M123.3,43.5v43.8h-8.5V43.5H123.3z"/>
	<path id="XMLID_14_" d="M137.8,77.3l-2,10h-8.3l9.5-43.8h10.2l8.5,43.8h-8.3l-1.9-10H137.8z M144.9,70.6l-1.4-9.2
		c-0.5-2.7-1-7-1.4-9.9h-0.2c-0.5,2.9-1.1,7.5-1.6,10l-1.6,9.1H144.9z"/>
	<path id="XMLID_17_" d="M160.7,87.3V43.5h7.8l6.8,17.2c1.3,3.4,3.4,9,4.7,12.8h0.1c-0.3-4.6-0.8-12.2-0.8-20.3v-9.7h7.5v43.8h-7.8
		l-6.7-16.6c-1.4-3.7-3.4-9.2-4.4-13.2h-0.1c0.2,4.4,0.5,11.2,0.5,20v9.9H160.7z"/>
	<path id="XMLID_19_" d="M213,43.5v43.8h-8.5V43.5H213z"/>
	<path id="XMLID_21_" d="M220.6,87.3V43.5h7.8l6.8,17.2c1.3,3.4,3.4,9,4.7,12.8h0.1c-0.3-4.6-0.8-12.2-0.8-20.3v-9.7h7.5v43.8h-7.8
		l-6.7-16.6c-1.4-3.7-3.4-9.2-4.4-13.2h-0.1c0.2,4.4,0.5,11.2,0.5,20v9.9H220.6z"/>
	<path id="XMLID_23_" d="M253.2,78.6c1.8,1,4.7,1.7,7.2,1.7c4,0,6-2.1,6-4.9c0-3.2-2-4.7-5.7-7.2c-6-3.6-8.3-8.3-8.3-12.2
		c0-7,4.7-12.9,13.8-12.9c2.9,0,5.6,0.8,6.9,1.6l-1.4,7.3c-1.2-0.8-3.1-1.5-5.6-1.5c-3.6,0-5.4,2.2-5.4,4.6c0,2.6,1.3,4,6,6.8
		c5.8,3.5,7.9,7.9,7.9,12.5c0,8-5.9,13.3-14.5,13.3c-3.5,0-7-0.9-8.4-1.8L253.2,78.6z"/>
	<path id="XMLID_25_" d="M284.5,51.3h-7.7v-7.9h24.1v7.9h-7.8v35.9h-8.5V51.3z"/>
	<path id="XMLID_27_" d="M313.9,43.5v43.8h-8.5V43.5H313.9z"/>
	<path id="XMLID_29_" d="M326.2,51.3h-7.7v-7.9h24.1v7.9h-7.8v35.9h-8.5V51.3z"/>
	<path id="XMLID_31_" d="M355.3,43.5v28.5c0,6.4,2,8.4,4.2,8.4c2.5,0,4.2-1.8,4.2-8.4V43.5h8.5v27c0,11.2-4.2,17.4-12.7,17.4
		c-9.2,0-12.7-6.3-12.7-17.3v-27H355.3z"/>
	<path id="XMLID_33_" d="M384.2,51.3h-7.7v-7.9h24.1v7.9h-7.8v35.9h-8.5V51.3z"/>
	<path id="XMLID_35_" d="M423.6,68h-10v11.8h11.3v7.4H405V43.5h19v7.4h-10.5v10.1h10V68z"/>
	<path id="XMLID_37_" d="M466.9,64.6c0,16.5-5.9,23.2-14.2,23.2c-9.9,0-13.8-10.5-13.8-22.6c0-12,4.7-22.3,14.4-22.3
		C463.9,42.9,466.9,54.6,466.9,64.6z M447.7,65.4c0,9.9,1.9,15,5.3,15c3.6,0,4.9-6.5,4.9-15.4c0-7.7-1.2-14.6-5-14.6
		C449.6,50.3,447.7,55.9,447.7,65.4z"/>
	<path id="XMLID_40_" d="M472.3,43.5h19v7.4h-10.5v11.2h9.9v7.1h-9.9v18.1h-8.5V43.5z"/>
	<path id="XMLID_42_" d="M516.6,43.5v43.8h-8.5V43.5H516.6z"/>
	<path id="XMLID_44_" d="M524.2,87.3V43.5h7.8l6.8,17.2c1.3,3.4,3.4,9,4.7,12.8h0.1c-0.3-4.6-0.8-12.2-0.8-20.3v-9.7h7.5v43.8h-7.8
		l-6.7-16.6c-1.4-3.7-3.4-9.2-4.4-13.2h-0.1c0.2,4.4,0.5,11.2,0.5,20v9.9H524.2z"/>
	<path id="XMLID_46_" d="M557.7,43.5h19v7.4h-10.5v11.2h9.9v7.1h-9.9v18.1h-8.5V43.5z"/>
	<path id="XMLID_48_" d="M609.1,64.6c0,16.5-5.9,23.2-14.2,23.2c-9.9,0-13.8-10.5-13.8-22.6c0-12,4.7-22.3,14.4-22.3
		C606.1,42.9,609.1,54.6,609.1,64.6z M589.9,65.4c0,9.9,1.9,15,5.3,15c3.6,0,4.9-6.5,4.9-15.4c0-7.7-1.2-14.6-5-14.6
		C591.8,50.3,589.9,55.9,589.9,65.4z"/>
	<path id="XMLID_51_" d="M614.5,44.1c2.7-0.5,6-0.8,9.3-0.8c4.7,0,8.8,0.7,11.7,3.3c2.7,2.4,3.4,5.3,3.4,9.1c0,4.7-2.3,8.9-6.8,11
		v0.1c3,1.2,4.5,4,5.3,8.6c0.8,4.9,2,10.3,2.8,11.9h-8.9c-0.5-1.2-1.5-5.7-2.1-10.5c-0.8-5.5-2.1-7-5-7H623v17.5h-8.5V44.1z
		 M623,63.2h1.5c3.7,0,5.9-3,5.9-6.8c0-3.7-1.5-6.4-5.3-6.5c-0.7,0-1.6,0.1-2,0.3V63.2z"/>
	<path id="XMLID_54_" d="M671.8,71.9c-0.2-4.2-0.5-9.8-0.4-14.5h-0.2c-0.8,4.7-2,10.1-2.8,13.5l-3.8,15.7h-6L655,71.1
		c-0.8-3.5-2-9-2.7-13.7h-0.2c-0.1,4.7-0.4,10.3-0.7,14.6l-0.7,15.2h-7.3l3.2-43.8h9l3.5,15.9c1.2,5.5,2.3,10.4,3.1,15.3h0.1
		c0.7-4.9,1.6-9.8,2.8-15.3l3.4-15.9h9l2.7,43.8h-7.6L671.8,71.9z"/>
	<path id="XMLID_56_" d="M693.4,77.3l-2,10h-8.3l9.5-43.8h10.2l8.5,43.8h-8.3l-1.9-10H693.4z M700.5,70.6l-1.4-9.2
		c-0.5-2.7-1-7-1.4-9.9h-0.2c-0.5,2.9-1.1,7.5-1.6,10l-1.6,9.1H700.5z"/>
	<path id="XMLID_59_" d="M717.7,51.3H710v-7.9H734v7.9h-7.8v35.9h-8.5V51.3z"/>
	<path id="XMLID_61_" d="M747,43.5v43.8h-8.5V43.5H747z"/>
	<path id="XMLID_63_" d="M780.5,64.6c0,16.5-5.9,23.2-14.2,23.2c-9.9,0-13.8-10.5-13.8-22.6c0-12,4.7-22.3,14.4-22.3
		C777.5,42.9,780.5,54.6,780.5,64.6z M761.3,65.4c0,9.9,1.9,15,5.3,15c3.6,0,4.9-6.5,4.9-15.4c0-7.7-1.2-14.6-5-14.6
		C763.2,50.3,761.3,55.9,761.3,65.4z"/>
	<path id="XMLID_66_" d="M785.9,87.3V43.5h7.8l6.8,17.2c1.3,3.4,3.4,9,4.7,12.8h0.1c-0.3-4.6-0.8-12.2-0.8-20.3v-9.7h7.5v43.8h-7.8
		l-6.7-16.6c-1.4-3.7-3.4-9.2-4.4-13.2h-0.1c0.2,4.4,0.5,11.2,0.5,20v9.9H785.9z"/>
	<path id="XMLID_68_" d="M833.8,51.3H826v-7.9h24.1v7.9h-7.8v35.9h-8.5V51.3z"/>
	<path id="XMLID_70_" d="M873.1,68h-10v11.8h11.3v7.4h-19.8V43.5h19v7.4h-10.5v10.1h10V68z"/>
	<path id="XMLID_72_" d="M901.2,86.6c-1.2,0.6-3.6,1-6.6,1c-11.2,0-16.5-9.2-16.5-21.6c0-16.5,9.2-22.9,17.7-22.9
		c3,0,5.1,0.6,5.9,1.2l-1.4,7.2c-1-0.5-2.1-0.8-4-0.8c-4.8,0-9.2,4.2-9.2,15c0,10.5,4,14.6,9.2,14.6c1.4,0,3.1-0.3,4.1-0.6
		L901.2,86.6z"/>
	<path id="XMLID_74_" d="M914.4,43.5V61h8.9V43.5h8.5v43.8h-8.5V68.9h-8.9v18.3h-8.5V43.5H914.4z"/>
	<path id="XMLID_76_" d="M939.3,87.3V43.5h7.8l6.8,17.2c1.3,3.4,3.4,9,4.7,12.8h0.1c-0.3-4.6-0.8-12.2-0.8-20.3v-9.7h7.5v43.8h-7.8
		l-6.7-16.6c-1.4-3.7-3.4-9.2-4.4-13.2h-0.1c0.2,4.4,0.5,11.2,0.5,20v9.9H939.3z"/>
	<path id="XMLID_78_" d="M998.7,64.6c0,16.5-5.8,23.2-14.2,23.2c-9.9,0-13.8-10.5-13.8-22.6c0-12,4.7-22.3,14.4-22.3
		C995.8,42.9,998.7,54.6,998.7,64.6z M979.6,65.4c0,9.9,1.9,15,5.3,15c3.6,0,4.9-6.5,4.9-15.4c0-7.7-1.2-14.6-5-14.6
		C981.5,50.3,979.6,55.9,979.6,65.4z"/>
	<path id="XMLID_81_" d="M1004.1,43.5h8.5V80h11.2v7.2h-19.8V43.5z"/>
	<path id="XMLID_83_" d="M1053,64.6c0,16.5-5.8,23.2-14.2,23.2c-9.9,0-13.8-10.5-13.8-22.6c0-12,4.7-22.3,14.4-22.3
		C1050,42.9,1053,54.6,1053,64.6z M1033.8,65.4c0,9.9,1.9,15,5.3,15c3.6,0,4.9-6.5,4.9-15.4c0-7.7-1.2-14.6-5-14.6
		C1035.7,50.3,1033.8,55.9,1033.8,65.4z"/>
	<path id="XMLID_86_" d="M1082.7,86.1c-1.9,0.8-5.9,1.6-9.1,1.6c-5,0-8.8-1.4-11.7-4.4c-3.8-3.6-5.8-10.1-5.7-17.7
		c0.2-15.9,9.3-22.6,18.6-22.6c3.3,0,5.8,0.6,7.2,1.3l-1.5,7.3c-1.2-0.7-2.9-1-5-1c-5.8,0-10.4,4-10.4,15.4
		c0,10.5,4.1,14.3,8.1,14.3c0.8,0,1.4-0.1,1.7-0.2V69.6h-3.9v-7h11.8V86.1z"/>
	<path id="XMLID_88_" d="M1093.9,87.3V70.5l-9.6-27h9.1l3,10.5c0.8,2.8,1.6,6,2.3,9.3h0.1c0.5-3.2,1.2-6.4,2-9.5l2.6-10.3h8.8
		l-9.8,26.7v17.1H1093.9z"/>
	<path id="XMLID_90_" d="M1107.6,95.4c1.9-5.4,3.6-12.2,4.4-17.3l8.6-0.6c-2,5.9-4.7,12.7-7.5,17.4L1107.6,95.4z"/>
	<path id="XMLID_92_" class="st0" d="M33.2,121.5h8.5V158H53v7.2H33.2V121.5z"/>
	<path id="XMLID_94_" class="st0" d="M64.8,121.5v28.5c0,6.4,2,8.4,4.2,8.4c2.5,0,4.2-1.8,4.2-8.4v-28.5h8.5v27
		c0,11.2-4.2,17.4-12.7,17.4c-9.2,0-12.7-6.3-12.7-17.3v-27H64.8z"/>
	<path id="XMLID_96_" class="st0" d="M110.1,164.6c-1.2,0.6-3.6,1-6.6,1c-11.2,0-16.5-9.2-16.5-21.6c0-16.5,9.2-22.9,17.7-22.9
		c3,0,5.1,0.6,5.9,1.2l-1.4,7.1c-1-0.5-2.1-0.8-4-0.8c-4.8,0-9.2,4.2-9.2,15c0,10.5,4,14.6,9.2,14.6c1.4,0,3.1-0.3,4.1-0.6
		L110.1,164.6z"/>
	<path id="XMLID_98_" class="st0" d="M114.8,121.5h8.5v19.7h0.1c0.7-1.8,1.4-3.8,2.1-5.7l5.9-14h9.4l-9.8,19l9.9,24.8h-9.3
		l-6.4-18.1l-1.9,3.6v14.6h-8.5V121.5z"/>
	<path id="XMLID_100_" class="st0" d="M144.6,165.3v-43.8h7.8l6.8,17.2c1.3,3.4,3.4,9,4.7,12.8h0.1c-0.3-4.6-0.8-12.2-0.8-20.3v-9.7
		h7.5v43.8h-7.8l-6.7-16.6c-1.4-3.7-3.4-9.2-4.4-13.2h-0.1c0.2,4.4,0.5,11.2,0.5,20v9.9H144.6z"/>
	<path id="XMLID_102_" class="st0" d="M204,142.6c0,16.5-5.9,23.2-14.2,23.2c-9.9,0-13.8-10.5-13.8-22.6c0-12,4.7-22.3,14.4-22.3
		C201,120.9,204,132.6,204,142.6z M184.8,143.4c0,9.9,1.9,15,5.3,15c3.6,0,4.9-6.5,4.9-15.4c0-7.7-1.2-14.6-5-14.6
		C186.7,128.3,184.8,133.9,184.8,143.4z"/>
	<path id="XMLID_105_" class="st0" d="M214,165.3l-7.5-43.8h8.8l2.1,17.5c0.6,5,1,10,1.5,15.3h0.2c0.6-5.4,1.6-10.1,2.5-15.4
		l3.1-17.4h6.9l2.9,17.3c0.8,4.9,1.6,9.8,2.1,15.5h0.1c0.6-5.7,1.1-10.4,1.7-15.5l2.1-17.4h8.3l-7.7,43.8h-8.8l-2.6-14.4
		c-0.7-4-1.4-9-2-14.4h-0.1c-0.8,5.3-1.5,10.1-2.4,14.4l-2.9,14.3H214z"/>
</g>
<g id="XMLID_3_">
	<rect id="XMLID_5_" x="1046.5" y="320.2" class="st1" width="53.9" height="42.1"/>
</g>
<g id="XMLID_2_">
</g>
<g id="XMLID_107_">
</g>
<g id="XMLID_108_">
</g>
<g id="XMLID_109_">
</g>
<g id="XMLID_110_">
</g>
<g id="XMLID_111_">
</g>
<g id="XMLID_112_">
</g>
<g id="XMLID_113_">
</g>
<g id="XMLID_114_">
</g>
<g id="XMLID_115_">
</g>
<g id="XMLID_116_">
</g>
<g id="XMLID_117_">
</g>
<g id="XMLID_118_">
</g>
<g id="XMLID_119_">
</g>
<g id="XMLID_120_">
</g>
</svg>
