<?xml version="1.0" encoding="utf-8"?>
<!-- Generator: Adobe Illustrator 19.0.0, SVG Export Plug-In . SVG Version: 6.00 Build 0)  -->
<svg version="1.1" id="Layer_1" xmlns="http://www.w3.org/2000/svg" xmlns:xlink="http://www.w3.org/1999/xlink" x="0px" y="0px"
	 viewBox="0 0 1280 208.2" style="enable-background:new 0 0 1280 208.2;" xml:space="preserve">
<style type="text/css">
	.st0{fill:#CE1919;}
</style>
<g id="XMLID_1_">
	<g id="XMLID_944_">
		<path id="XMLID_1045_" d="M88.7,47.1v28.3h-5.5V47.1H88.7z"/>
		<path id="XMLID_1043_" d="M93.6,75.4V47.1h5l4.4,11.1c0.8,2.2,2.2,5.8,3,8.3h0.1c-0.2-3-0.5-7.9-0.5-13.1v-6.3h4.8v28.3h-5
			L101,64.7c-0.9-2.4-2.2-6-2.9-8.5h-0.1c0.1,2.9,0.3,7.2,0.3,12.9v6.4H93.6z"/>
		<path id="XMLID_1040_" d="M115.3,47.5c1.4-0.3,3.4-0.5,5.6-0.5c3.6,0,6,0.8,7.9,2.5c2.4,2.2,3.7,5.9,3.7,11.4
			c0,5.7-1.5,9.8-3.9,12c-1.9,1.8-4.7,2.7-8.7,2.7c-1.7,0-3.4-0.2-4.5-0.3V47.5z M120.8,71.1c0.3,0.1,0.7,0.1,1,0.1
			c2.6,0,5-2.6,5-10.4c0-5.8-1.5-9.3-4.8-9.3c-0.4,0-0.8,0-1.1,0.1V71.1z"/>
		<path id="XMLID_1038_" d="M141.4,47.1v28.3h-5.5V47.1H141.4z"/>
		<path id="XMLID_1035_" d="M150.8,69l-1.3,6.5h-5.3l6.1-28.3h6.6l5.5,28.3h-5.3l-1.2-6.5H150.8z M155.4,64.7l-0.9-5.9
			c-0.3-1.7-0.7-4.5-0.9-6.4h-0.1c-0.3,1.9-0.7,4.8-1,6.5l-1,5.9H155.4z"/>
		<path id="XMLID_1033_" d="M165.5,75.4V47.1h5l4.4,11.1c0.8,2.2,2.2,5.8,3,8.3h0.1c-0.2-3-0.5-7.9-0.5-13.1v-6.3h4.8v28.3h-5
			L173,64.7c-0.9-2.4-2.2-6-2.9-8.5H170c0.1,2.9,0.3,7.2,0.3,12.9v6.4H165.5z"/>
		<path id="XMLID_1031_" d="M199.4,47.1v28.3h-5.5V47.1H199.4z"/>
		<path id="XMLID_1029_" d="M204.3,75.4V47.1h5l4.4,11.1c0.8,2.2,2.2,5.8,3,8.3h0.1c-0.2-3-0.5-7.9-0.5-13.1v-6.3h4.8v28.3h-5
			l-4.3-10.8c-0.9-2.4-2.2-6-2.9-8.5h-0.1c0.1,2.9,0.3,7.2,0.3,12.9v6.4H204.3z"/>
		<path id="XMLID_1027_" d="M225.3,69.8c1.1,0.6,3.1,1.1,4.7,1.1c2.6,0,3.9-1.3,3.9-3.2c0-2.1-1.3-3.1-3.7-4.6
			c-3.9-2.4-5.3-5.3-5.3-7.9c0-4.5,3-8.3,8.9-8.3c1.8,0,3.6,0.5,4.5,1l-0.9,4.7c-0.8-0.5-2-1-3.6-1c-2.4,0-3.5,1.4-3.5,2.9
			c0,1.7,0.8,2.6,3.9,4.4c3.7,2.3,5.1,5.1,5.1,8.1c0,5.2-3.8,8.6-9.4,8.6c-2.3,0-4.5-0.6-5.4-1.1L225.3,69.8z"/>
		<path id="XMLID_1025_" d="M245.6,52.2h-5v-5.1h15.5v5.1h-5v23.2h-5.5V52.2z"/>
		<path id="XMLID_1023_" d="M264.5,47.1v28.3H259V47.1H264.5z"/>
		<path id="XMLID_1021_" d="M272.5,52.2h-5v-5.1H283v5.1h-5v23.2h-5.5V52.2z"/>
		<path id="XMLID_1019_" d="M291.3,47.1v18.4c0,4.2,1.3,5.4,2.7,5.4c1.6,0,2.7-1.1,2.7-5.4V47.1h5.5v17.4c0,7.3-2.7,11.2-8.2,11.2
			c-5.9,0-8.2-4.1-8.2-11.2V47.1H291.3z"/>
		<path id="XMLID_1017_" d="M310,52.2h-5v-5.1h15.5v5.1h-5v23.2H310V52.2z"/>
		<path id="XMLID_1015_" d="M335.4,63H329v7.6h7.3v4.8h-12.8V47.1h12.3v4.8H329v6.5h6.5V63z"/>
		<path id="XMLID_1012_" d="M363.4,60.8c0,10.7-3.8,15-9.2,15c-6.4,0-8.9-6.8-8.9-14.6c0-7.7,3.1-14.4,9.3-14.4
			C361.5,46.8,363.4,54.3,363.4,60.8z M351,61.3c0,6.4,1.2,9.7,3.4,9.7c2.3,0,3.2-4.2,3.2-10c0-5-0.8-9.5-3.2-9.5
			C352.2,51.6,351,55.2,351,61.3z"/>
		<path id="XMLID_1010_" d="M366.9,47.1h12.3v4.8h-6.8v7.3h6.4v4.6h-6.4v11.7h-5.5V47.1z"/>
		<path id="XMLID_1008_" d="M395.5,47.1v28.3H390V47.1H395.5z"/>
		<path id="XMLID_1006_" d="M400.4,75.4V47.1h5l4.4,11.1c0.8,2.2,2.2,5.8,3,8.3h0.1c-0.2-3-0.5-7.9-0.5-13.1v-6.3h4.8v28.3h-5
			l-4.3-10.8c-0.9-2.4-2.2-6-2.9-8.5h-0.1c0.1,2.9,0.3,7.2,0.3,12.9v6.4H400.4z"/>
		<path id="XMLID_1004_" d="M422.1,47.1h12.3v4.8h-6.8v7.3h6.4v4.6h-6.4v11.7h-5.5V47.1z"/>
		<path id="XMLID_1001_" d="M455.3,60.8c0,10.7-3.8,15-9.2,15c-6.4,0-8.9-6.8-8.9-14.6c0-7.7,3.1-14.4,9.3-14.4
			C453.4,46.8,455.3,54.3,455.3,60.8z M442.9,61.3c0,6.4,1.2,9.7,3.4,9.7c2.3,0,3.2-4.2,3.2-10c0-5-0.8-9.5-3.2-9.5
			C444.1,51.6,442.9,55.2,442.9,61.3z"/>
		<path id="XMLID_998_" d="M458.8,47.5c1.7-0.3,3.9-0.5,6-0.5c3,0,5.7,0.4,7.6,2.1c1.7,1.6,2.2,3.4,2.2,5.9c0,3-1.5,5.8-4.4,7.1v0.1
			c1.9,0.8,2.9,2.6,3.4,5.6c0.5,3.2,1.3,6.6,1.8,7.7h-5.8c-0.3-0.8-1-3.7-1.4-6.8c-0.5-3.5-1.4-4.5-3.2-4.5h-0.8v11.3h-5.5V47.5z
			 M464.3,59.9h1c2.4,0,3.8-1.9,3.8-4.4c0-2.4-1-4.1-3.4-4.2c-0.5,0-1,0-1.3,0.2V59.9z"/>
		<path id="XMLID_996_" d="M495.8,65.5c-0.1-2.7-0.3-6.3-0.3-9.4h-0.1c-0.5,3-1.3,6.5-1.8,8.7L491.2,75h-3.9l-2.4-10
			c-0.5-2.3-1.3-5.8-1.7-8.9h-0.1c-0.1,3.1-0.3,6.6-0.4,9.5l-0.5,9.8h-4.7l2.1-28.3h5.8l2.3,10.3c0.8,3.6,1.5,6.7,2,9.9h0.1
			c0.4-3.2,1.1-6.3,1.8-9.9l2.2-10.3h5.8l1.7,28.3h-4.9L495.8,65.5z"/>
		<path id="XMLID_993_" d="M509.8,69l-1.3,6.5h-5.3l6.1-28.3h6.6l5.5,28.3h-5.3l-1.2-6.5H509.8z M514.3,64.7l-0.9-5.9
			c-0.3-1.7-0.7-4.5-0.9-6.4h-0.1c-0.3,1.9-0.7,4.8-1,6.5l-1,5.9H514.3z"/>
		<path id="XMLID_991_" d="M525.5,52.2h-5v-5.1H536v5.1h-5v23.2h-5.5V52.2z"/>
		<path id="XMLID_989_" d="M544.4,47.1v28.3h-5.5V47.1H544.4z"/>
		<path id="XMLID_986_" d="M566,60.8c0,10.7-3.8,15-9.2,15c-6.4,0-8.9-6.8-8.9-14.6c0-7.7,3.1-14.4,9.3-14.4
			C564.1,46.8,566,54.3,566,60.8z M553.6,61.3c0,6.4,1.2,9.7,3.4,9.7c2.3,0,3.2-4.2,3.2-10c0-5-0.8-9.5-3.2-9.5
			C554.9,51.6,553.6,55.2,553.6,61.3z"/>
		<path id="XMLID_984_" d="M569.5,75.4V47.1h5l4.4,11.1c0.8,2.2,2.2,5.8,3,8.3h0.1c-0.2-3-0.5-7.9-0.5-13.1v-6.3h4.8v28.3h-5
			L577,64.7c-0.9-2.4-2.2-6-2.9-8.5H574c0.1,2.9,0.3,7.2,0.3,12.9v6.4H569.5z"/>
		<path id="XMLID_982_" d="M600.5,52.2h-5v-5.1H611v5.1h-5v23.2h-5.5V52.2z"/>
		<path id="XMLID_980_" d="M625.9,63h-6.5v7.6h7.3v4.8h-12.8V47.1h12.3v4.8h-6.8v6.5h6.5V63z"/>
		<path id="XMLID_978_" d="M644,75c-0.8,0.4-2.4,0.7-4.3,0.7c-7.2,0-10.7-6-10.7-14c0-10.7,5.9-14.8,11.4-14.8
			c1.9,0,3.3,0.4,3.8,0.8l-0.9,4.6c-0.6-0.3-1.3-0.5-2.6-0.5c-3.1,0-5.9,2.7-5.9,9.7c0,6.8,2.6,9.4,5.9,9.4c0.9,0,2-0.2,2.6-0.4
			L644,75z"/>
		<path id="XMLID_976_" d="M652.6,47.1v11.3h5.8V47.1h5.5v28.3h-5.5V63.6h-5.8v11.8h-5.5V47.1H652.6z"/>
		<path id="XMLID_974_" d="M668.7,75.4V47.1h5l4.4,11.1c0.8,2.2,2.2,5.8,3,8.3h0.1c-0.2-3-0.5-7.9-0.5-13.1v-6.3h4.8v28.3h-5
			l-4.3-10.8c-0.9-2.4-2.2-6-2.9-8.5h-0.1c0.1,2.9,0.3,7.2,0.3,12.9v6.4H668.7z"/>
		<path id="XMLID_971_" d="M707.1,60.8c0,10.7-3.8,15-9.2,15c-6.4,0-8.9-6.8-8.9-14.6c0-7.7,3.1-14.4,9.3-14.4
			C705.1,46.8,707.1,54.3,707.1,60.8z M694.7,61.3c0,6.4,1.2,9.7,3.4,9.7c2.3,0,3.2-4.2,3.2-10c0-5-0.8-9.5-3.2-9.5
			C695.9,51.6,694.7,55.2,694.7,61.3z"/>
		<path id="XMLID_969_" d="M710.6,47.1h5.5v23.7h7.3v4.7h-12.8V47.1z"/>
		<path id="XMLID_966_" d="M742.1,60.8c0,10.7-3.8,15-9.2,15c-6.4,0-8.9-6.8-8.9-14.6c0-7.7,3.1-14.4,9.3-14.4
			C740.2,46.8,742.1,54.3,742.1,60.8z M729.7,61.3c0,6.4,1.2,9.7,3.4,9.7c2.3,0,3.2-4.2,3.2-10c0-5-0.8-9.5-3.2-9.5
			C730.9,51.6,729.7,55.2,729.7,61.3z"/>
		<path id="XMLID_964_" d="M761.3,74.7c-1.2,0.5-3.8,1-5.9,1c-3.2,0-5.7-0.9-7.6-2.8c-2.4-2.4-3.7-6.6-3.7-11.4
			c0.1-10.3,6-14.6,12-14.6c2.1,0,3.7,0.4,4.6,0.8l-1,4.7c-0.8-0.4-1.8-0.6-3.2-0.6c-3.7,0-6.7,2.6-6.7,10c0,6.8,2.6,9.2,5.2,9.2
			c0.5,0,0.9,0,1.1-0.1V64h-2.5v-4.5h7.6V74.7z"/>
		<path id="XMLID_962_" d="M768.6,75.4V64.6l-6.2-17.5h5.9l1.9,6.8c0.5,1.8,1,3.9,1.5,6h0.1c0.3-2.1,0.8-4.1,1.3-6.1l1.7-6.6h5.7
			l-6.3,17.3v11H768.6z"/>
		<path id="XMLID_960_" d="M777.4,80.7c1.2-3.5,2.4-7.9,2.8-11.2l5.6-0.4c-1.3,3.8-3,8.2-4.9,11.2L777.4,80.7z"/>
		<path id="XMLID_958_" class="st0" d="M795.9,47.1h5.5v23.7h7.3v4.7h-12.8V47.1z"/>
		<path id="XMLID_956_" class="st0" d="M816.4,47.1v18.4c0,4.2,1.3,5.4,2.7,5.4c1.6,0,2.7-1.1,2.7-5.4V47.1h5.5v17.4
			c0,7.3-2.7,11.2-8.2,11.2c-5.9,0-8.2-4.1-8.2-11.2V47.1H816.4z"/>
		<path id="XMLID_954_" class="st0" d="M845.6,75c-0.8,0.4-2.4,0.7-4.3,0.7c-7.2,0-10.7-6-10.7-14c0-10.7,5.9-14.8,11.4-14.8
			c1.9,0,3.3,0.4,3.8,0.8l-0.9,4.6c-0.6-0.3-1.3-0.5-2.6-0.5c-3.1,0-5.9,2.7-5.9,9.7c0,6.8,2.6,9.4,5.9,9.4c0.9,0,2-0.2,2.6-0.4
			L845.6,75z"/>
		<path id="XMLID_952_" class="st0" d="M848.6,47.1h5.5v12.7h0.1c0.5-1.2,0.9-2.4,1.4-3.7l3.8-9.1h6l-6.3,12.3l6.4,16h-6l-4.1-11.7
			l-1.3,2.3v9.4h-5.5V47.1z"/>
		<path id="XMLID_950_" class="st0" d="M867.9,75.4V47.1h5l4.4,11.1c0.8,2.2,2.2,5.8,3,8.3h0.1c-0.2-3-0.5-7.9-0.5-13.1v-6.3h4.8
			v28.3h-5l-4.3-10.8c-0.9-2.4-2.2-6-2.9-8.5h-0.1c0.1,2.9,0.3,7.2,0.3,12.9v6.4H867.9z"/>
		<path id="XMLID_947_" class="st0" d="M906.3,60.8c0,10.7-3.8,15-9.2,15c-6.4,0-8.9-6.8-8.9-14.6c0-7.7,3.1-14.4,9.3-14.4
			C904.3,46.8,906.3,54.3,906.3,60.8z M893.9,61.3c0,6.4,1.2,9.7,3.4,9.7c2.3,0,3.2-4.2,3.2-10c0-5-0.8-9.5-3.2-9.5
			C895.1,51.6,893.9,55.2,893.9,61.3z"/>
		<path id="XMLID_945_" class="st0" d="M912.7,75.4l-4.8-28.3h5.7l1.4,11.3c0.4,3.2,0.6,6.5,1,9.9h0.1c0.4-3.5,1-6.6,1.6-10l2-11.3
			h4.5l1.9,11.2c0.5,3.2,1,6.3,1.3,10h0.1c0.4-3.7,0.7-6.7,1.1-10l1.4-11.2h5.4l-5,28.3h-5.7l-1.7-9.3c-0.5-2.6-0.9-5.8-1.3-9.3
			h-0.1c-0.5,3.4-1,6.6-1.6,9.3l-1.9,9.2H912.7z"/>
	</g>
</g>
<g id="XMLID_2_">
	<path id="XMLID_17_" d="M96.9,127.5l0.4-0.5h13.1l1.7,3.5l-0.4,0.5h-4.4l0.1,22.5l-0.4,0.3l-4-1.2l0.1-9.1c-3,0-5.5,0.1-7.5,0.4
		c-0.7,2.6-1.8,4.1-3.1,4.1c-1,0-2.3-0.7-3.6-2.2c-1.2-1.2-1.9-2.4-1.9-3.5c0-1.6,1.6-2.5,4.7-3c0.2-0.8,0.2-2.1,0.2-5.1
		c0-3.7-0.6-5.4-2.4-5.4c-1.1,0-2.4,1-2.4,2.6s1.1,2.8,2.9,3.7l-0.6,1.1c-1.5-0.3-2.9-0.7-4.1-1.2c-1.9-1.4-2.9-3.2-2.9-5
		c0-2.4,1.9-4.6,4.9-4.6c1.7,0,3.5,0.7,5.4,2.3c2.2,1.9,3.4,3.7,3.4,8.2c0,1.1,0,2.2-0.1,3.4c2.4,0,4.6,0,7,0.2V131h-4.5L96.9,127.5
		z"/>
	<path id="XMLID_19_" d="M109.6,127.5l0.4-0.5h11.3l1.7,3.5l-0.4,0.5h-4.4l0.1,22.5l-0.4,0.3l-4.1-1.2l0.1-21.6h-2.7L109.6,127.5z"
		/>
	<path id="XMLID_21_" d="M120.4,127.5l0.4-0.5H139l1.7,3.5l-0.4,0.5h-5.8c0.2,1.1,0.3,2.1,0.3,3.1c0,5.1-2.3,7.6-5.5,9.4
		c2.1,2.3,5.4,4.3,9.4,6.2l-2,4.3h-0.4c-5.2-3.9-9.2-7.9-11.7-12.4c-0.6-1.1-1-2.1-1-2.6c0-0.4,0.1-0.9,0.4-1.4
		c0.4-0.7,1.2-1.1,2.4-1.1c1.2,0,2.4,0,3.1,0.1c0.6-0.7,0.9-1.9,0.9-3.8c0-0.7-0.1-1.3-0.2-1.9h-8.2L120.4,127.5z"/>
	<path id="XMLID_23_" d="M138.2,127.5l0.4-0.5h24.1l1.7,3.5L164,131h-4.4l0.1,22.5l-0.4,0.3l-4-1.2l0.1-13.8h-2.1
		c-3.9,0-5.7,0.5-6.8,1.3s-1.6,1.9-1.6,3.1c0,2.6,2.1,4.1,6.6,6.6l-1.8,4l-0.4,0.1c-4.2-3.1-8.1-8.5-8.1-13.1c0-2.7,1.4-6.3,8.3-6.3
		c2.1,0,4.1,0.1,5.9,0.1V131h-15.5L138.2,127.5z"/>
	<path id="XMLID_25_" d="M161.9,127.5l0.4-0.5h4.1c-0.3-5.2-2-8-5.5-8c-2.2,0-3.5,1.4-3.5,3.4c0,1.1,0.5,2.3,1.4,3.4l-0.4,0.6
		l-3.8-1.7c-1.2-1.4-1.7-3-1.7-4.5c0-3,2.4-5,5.8-5c3,0,5.9,1.6,8.5,5.2c1.4,2,2.4,4.2,3,6.7h3.3l1.7,3.5l-0.4,0.5h-4.4l0.1,22.5
		l-0.4,0.3l-4.1-1.2l0.1-21.6h-2.7L161.9,127.5z"/>
	<path id="XMLID_28_" d="M172.7,127.5l0.4-0.5h24.5l1.7,3.5l-0.4,0.5h-4.4l0.1,22.5l-0.4,0.3l-4-1.2l0.1-5.9
		c-1.2,0.7-2.5,1.1-4.1,1.1c-5,0-8.8-3.6-11.3-10.7l0.3-0.5c3.6-0.8,6.1-1.8,6.1-3.9c0-0.7-0.2-1.2-0.6-1.8h-6.2L172.7,127.5z
		 M190.4,131h-6.6c0.8,1.5,1.4,2.9,1.4,4.5c0,2.5-2.1,3.9-5.7,4.8c0.5,2.1,2.2,3.2,5,3.2c1.6,0,3.2-0.5,4.5-1.5
		c0.8-0.7,1.3-1.6,1.3-3V131z"/>
	<path id="XMLID_32_" d="M207.3,127.5l0.4-0.5h27.3l1.7,3.5l-0.4,0.5h-4.4l0.1,22.5l-0.4,0.3l-4-1.2l0.1-8.8
		c-1.1,0.1-2.2,0.2-3.4,0.2c-1.7,0-4.1-0.5-5.9-1.4c-0.7,1.1-2,2-2.9,2.6c2,2.1,5.1,4,9,5.8l-1.9,4.2h-0.4
		c-4.2-3.2-7.9-6.7-10.4-10.5c-1.3-2-1.9-3.5-1.9-4.5c0-1.4,0.9-2.7,2.6-2.7c0.6,0,1.5,0.1,2.1,0.2c0.3-0.9,0.4-2.1,0.4-3.4
		c0-1.3-0.1-2.5-0.3-3.5H209L207.3,127.5z M218.6,131c0.4,2,0.5,3.8,0.5,5.5c0,1,0,1.8-0.1,2.6c1.2,0.2,2.6,0.4,4.1,0.4
		c1.8,0,3.3-0.2,4.5-0.5V131H218.6z"/>
	<path id="XMLID_35_" d="M234.6,162.6l0,0.3c-1.2,2-2.8,2.7-4.5,2.7c-3,0-6.7-3.3-6.7-6.3c0-2.7,2.4-4.6,5.4-4.6
		c3.8,0,7.5,2.7,13.6,8.9l-1.2,1.7h-0.3c-4.2-4.6-7.7-7.2-10.2-7.2c-2.3,0-3.9,1.5-3.9,2.9c0,0.7,0.5,1.4,1.5,1.4
		c1.2,0,2.3-0.7,3.3-2.5L234.6,162.6z"/>
	<path id="XMLID_37_" d="M234.1,127.5l0.4-0.5h28.8l1.7,3.5l-0.4,0.5h-4.4l0.1,22.5l-0.4,0.3l-4-1.2l0.1-5.4
		c-1.7,1.2-3.3,1.5-4.8,1.5c-2.3,0-4.7-0.8-7.1-3.4c-1.7-1.8-2.6-3.5-2.6-5.6c0-0.5,0.1-1.1,0.3-1.6h-3.3l-1.8-3.6l0.4-0.5h14.8
		l1.8,3.6l-0.3,0.3H250c-2.7,0-4.2,1.6-4.2,3.8c0,2,1.5,2.8,3.1,2.8c2.1,0,3.8-0.7,5.4-2c1-0.9,1.7-2.1,1.7-3.9V131h-20.2
		L234.1,127.5z"/>
	<path id="XMLID_39_" d="M262.4,127.5l0.4-0.5h24l1.7,3.5l-0.4,0.5h-4.4l0.1,22.5l-0.4,0.3l-4-1.2l0.1-12c-1.2-0.1-2.1-0.1-3.3-0.1
		c-1.4,0-2.9,0.1-3.7,0.4c0.2,1.2,0.2,2.1,0.2,2.8c0,0.9-0.1,1.5-0.7,2c-0.5,0.4-1,0.6-1.5,0.6c-0.9,0-2-0.7-3.5-2.2
		c-1.4-1.5-2.1-2.8-2.1-3.9c0-0.7,0.4-4,7.1-4c2.1,0,4.6,0.2,7.5,0.6V131h-15.4L262.4,127.5z"/>
	<path id="XMLID_41_" d="M286,127.5l0.4-0.5h11.3l1.7,3.5L299,131h-4.4l0.1,22.5l-0.4,0.3l-4.1-1.2l0.1-21.6h-2.7L286,127.5z"/>
	<path id="XMLID_43_" d="M307.4,127.5l0.4-0.5h24.4l1.7,3.5l-0.4,0.5h-4.4l0.1,22.5l-0.4,0.3l-4-1.2l0.1-7.4l-0.1,0
		c-2.3,1.6-6,4.2-10.4,7l-4.1-2.7v-0.2l7.2-4.5v-0.1c-3.8-1.9-4.9-3.9-4.9-9.1c0-1.6,0.1-3.1,0.1-4.6h-3.6L307.4,127.5z M324.9,131
		h-7.8c-0.1,1.7-0.1,3.5-0.1,5.2c0,5.2,1.1,6.3,2.8,6.3c1.7,0,3.8-1.1,5.1-2.5V131z"/>
	<path id="XMLID_46_" d="M331.3,127.5l0.4-0.5h5.3l0.1-0.1c-2.2-2.4-4.3-3.9-6.6-3.9c-1.7,0-3.6,0.8-5.7,2l-0.2-0.1l-2.4-3.8
		c1.8-1.1,3.9-1.9,5.5-1.9c2.4,0,4.7,1.2,8,3.9l0.1-0.1c-0.3-1.6-0.6-2.8-0.9-3.6c-0.7-1.9-1.9-2.7-4.6-2.7c-1.1,0-2.3,0.1-3.8,0.5
		l-0.2-0.1l-1.3-4.4c1.4-0.3,2.8-0.4,4.1-0.4c3.5,0,5,1.4,6.8,4.7c1.4,2.6,2.2,5.4,3.1,10.2h4l1.7,3.5l-0.4,0.5h-4.4l0.1,22.5
		l-0.4,0.3l-4.1-1.2l0.1-21.6H333L331.3,127.5z"/>
	<path id="XMLID_48_" d="M342.2,127.5l0.4-0.5h28.7l1.7,3.5l-0.4,0.5h-4.4l0.1,26.6l-0.4,0.3l-4.1-1.2l0.1-4.3
		c-1.5,1-3.6,1.7-5.6,1.7c-2.1,0-4.3-0.9-6.2-2.9c-1.7-1.8-2.6-3.5-2.6-5.1c0-0.5,0.1-1,0.5-1.7c-2.6-2.1-4.4-4.3-4.4-6.4
		c0-3.1,2.6-4.1,6-4.1h4.5v-3h-12.2L342.2,127.5z M364,131h-3.8l0.1,6.6l-0.4,0.5c-1.5,0-3.4-0.1-5.4-0.1c-3.5,0-4.8,1-4.8,2.2
		c0,1.2,1.5,1.8,3.6,1.8c1.5,0,3.1,0,4.6-0.1l1.9,3.6l-0.2,0.3c-4.5,0.1-6.4,1.1-6.4,2.6c0,1.2,1.4,1.8,2.9,1.8
		c1.6,0,7.8-0.8,7.8-6.5V131z"/>
	<path id="XMLID_51_" d="M370.5,127.5l0.4-0.5h4.4c-1.9-5-3-8.1-6.7-8.1c-1.9,0-3.5,0.3-4.9,0.7h-0.1l-1.9-4.8
		c1.7-0.5,3.4-0.7,5.3-0.7c5.1,0,7,4,11.1,12.8h4.2l1.7,3.5l-0.4,0.5h-4.4l0.1,22.5l-0.4,0.3l-4.1-1.2l0.1-21.6h-2.7L370.5,127.5z"
		/>
	<path id="XMLID_53_" d="M381.3,127.5l0.4-0.5h4.8c-1.2-1.5-1.9-2.8-1.9-4.4c0-3.5,2.9-7.2,8.8-7.2c5.1,0,10.7,2.7,17,8.9l-1.1,1.7
		H409c-4.1-3.9-8.4-6.3-12.9-6.3c-4.4,0-7.2,2.7-7.2,5.7c0,0.7,0.2,1.2,0.4,1.6h3.9l1.7,3.5l-0.4,0.5H390l0.1,22.5l-0.4,0.3
		l-4.1-1.2l0.1-21.6h-2.7L381.3,127.5z"/>
	<path id="XMLID_55_" d="M392.2,127.5l0.4-0.5H418l1.7,3.5l-0.4,0.5h-4.4l0.1,22.5l-0.4,0.3l-4.1-1.2l0.1-21.6h-7.4
		c0.2,2.6,0.3,4.8,0.3,6.7c0,4-0.4,6.3-1.3,7.9c-0.7,1-1.5,1.4-2.3,1.4c-0.8,0-1.9-0.7-3.2-2.1c-1.1-1.2-1.9-2.5-1.9-3.5
		c0-0.6,0.2-1.1,0.5-1.5c0.6-0.7,1.9-1,4-1.2c0.2-1.1,0.2-2.2,0.2-3.4c0-1.3-0.1-2.9-0.3-4.2h-5.3L392.2,127.5z"/>
	<path id="XMLID_57_" d="M417.2,127.5l0.4-0.5h31.1l1.7,3.5L450,131h-13v6.1l0.1,0.1c1.3-1,2.8-1.5,4.1-1.5c1.9,0,3.4,0.8,4.7,2.2
		c1.5,1.6,2.1,3.4,2.1,5.3c0,2.6-1.2,5.5-3.2,8h-0.4l-3.8-2.9c2.2-2.7,3.8-5.5,3.8-7.5c0-0.9-0.4-1.4-1.3-1.4c-1.8,0-4.1,1.7-6.1,4
		l0.1,10.1l-0.4,0.3l-3.9-1.2l0.1-5.7l-0.1,0c-1.3,1-2.7,1.3-4.2,1.3c-2.7,0-4.4-1.3-6.2-3.2c-1.3-1.5-2.3-3.4-2.3-5.2
		c0-3.7,3-6.1,6.9-6.1c1.6,0,3.5,0.3,5.8,1V131h-14L417.2,127.5z M432.9,137.8c-0.7-0.2-1.6-0.2-2.5-0.2c-4.2,0-6.2,2.2-6.2,4.6
		c0,1.4,1,2,2.7,2c2,0,4-1,5.9-3V137.8z"/>
	<path id="XMLID_60_" d="M447.8,127.5l0.4-0.5h4c-1-5.7-4.1-9.2-9.6-9.2c-4.3,0-7.1,2-7.1,5.1c0,1.1,0.3,2.1,0.9,2.9l-0.4,0.6
		l-3.7-1.7c-0.7-1.2-1.2-2.5-1.2-4c0-3.7,3-6.7,8.7-6.7c3.6,0,6.6,1.2,9.5,3.1c3.2,2.1,5.7,5.6,7,9.8h3.2l1.7,3.5l-0.4,0.5h-4.4
		l0.1,22.5l-0.4,0.3l-4.1-1.2l0.1-21.6h-2.7L447.8,127.5z"/>
	<path id="XMLID_62_" d="M469.2,127.5l0.4-0.5h27.3l1.7,3.5l-0.4,0.5h-4.4l0.1,22.5l-0.4,0.3l-4-1.2l0.1-8.8
		c-1.1,0.1-2.2,0.2-3.4,0.2c-1.7,0-4.1-0.5-5.9-1.4c-0.7,1.1-2,2-2.9,2.6c2,2.1,5.1,4,9,5.8l-1.9,4.2h-0.4
		c-4.2-3.2-7.9-6.7-10.4-10.5c-1.3-2-1.9-3.5-1.9-4.5c0-1.4,0.9-2.7,2.6-2.7c0.6,0,1.5,0.1,2.1,0.2c0.3-0.9,0.4-2.1,0.4-3.4
		c0-1.3-0.1-2.5-0.3-3.5h-5.7L469.2,127.5z M480.5,131c0.4,2,0.5,3.8,0.5,5.5c0,1,0,1.8-0.1,2.6c1.2,0.2,2.6,0.4,4.1,0.4
		c1.8,0,3.3-0.2,4.5-0.5V131H480.5z"/>
	<path id="XMLID_65_" d="M485.2,117.6l3.5,3.5l-3.5,3.5l-3.5-3.5L485.2,117.6z"/>
	<path id="XMLID_67_" d="M496,127.5l0.4-0.5h18.7c0.9-1,2.2-1.7,4.1-1.7c2,0,3.8,1.2,5.4,3.3c1.6,2.1,2.1,3.7,2.1,5.2
		c0,3.9-2.9,5.5-7.2,7.2c0.6,1.8,2,2.7,4.4,2.7c1.6,0,3.2-0.6,4.5-1.5c1.4-1,2.1-2,2.1-4.3V131h-2.2l-1.7-3.5l0.4-0.5h10.8l1.7,3.5
		l-0.4,0.5h-4.4l0.1,22.5l-0.4,0.3l-4-1.2l0.1-6c-1.4,0.9-3,1.4-4.8,1.4c-2.9,0-5.7-1.5-8-4.4c-1.5,0.3-3,0.4-4.6,0.4
		c-1.7,0-4.1-0.5-5.9-1.4c-0.7,1.1-2,2-2.9,2.6c2,2.1,5.1,4,9,5.8l-1.9,4.2h-0.4c-4.2-3.2-7.9-6.7-10.4-10.5c-1.3-2-1.9-3.5-1.9-4.5
		c0-1.4,0.9-2.7,2.6-2.7c0.6,0,1.5,0.1,2.1,0.2c0.3-0.9,0.4-2.1,0.4-3.4c0-1.3-0.1-2.5-0.3-3.5h-5.7L496,127.5z M514.1,131h-6.7
		c0.4,2,0.5,3.8,0.5,5.5c0,1,0,1.8-0.1,2.6c1.2,0.2,2.6,0.4,4.1,0.4c1.2,0,2.3-0.1,3.3-0.2c-0.2-0.3-0.3-0.7-0.4-1l0.3-0.6
		c5.1-1.9,8.5-3.2,8.5-6.4c0-1.2-0.9-2.2-2.5-2.2c-2.1,0-3.1,1.5-3.1,2.9c0,0.9,0.7,1.8,1.9,2.7l-0.4,0.9l-3-1.1
		C515.1,133.4,514.3,132.2,514.1,131z"/>
	<path id="XMLID_70_" d="M536.9,127.5l0.4-0.5h11.3l1.7,3.5l-0.4,0.5h-4.4l0.1,22.5l-0.4,0.3l-4.1-1.2l0.1-21.6h-2.7L536.9,127.5z"
		/>
	<path id="XMLID_72_" d="M547.7,127.5l0.4-0.5h24l1.7,3.5l-0.4,0.5H569l0.1,22.5l-0.4,0.3l-4-1.2l0.1-12c-1.2-0.1-2.1-0.1-3.3-0.1
		c-1.4,0-2.9,0.1-3.7,0.4c0.2,1.2,0.2,2.1,0.2,2.8c0,0.9-0.1,1.5-0.7,2c-0.5,0.4-1,0.6-1.5,0.6c-0.9,0-2-0.7-3.5-2.2
		c-1.4-1.5-2.1-2.8-2.1-3.9c0-0.7,0.4-4,7.1-4c2.1,0,4.6,0.2,7.5,0.6V131h-15.4L547.7,127.5z"/>
	<path id="XMLID_74_" d="M582.6,151.7c0,4.4-3.9,6.9-7.6,7.8l-0.6-1.8c2.7-1.1,4.2-2.4,4.2-4.4c0-1.7-1.3-3-3.3-3.5
		c-0.3-0.1-0.7-0.5-0.7-1.5c0-1.4,1.3-2.4,2.8-2.4C579.6,145.7,582.6,148,582.6,151.7z"/>
	<path id="XMLID_76_" class="st0" d="M593.7,127.5l0.4-0.5h28.5l1.7,3.5l-0.4,0.5h-4.4l0.1,22.5l-0.4,0.3l-4-1.2l0.1-14.2
		c-4.1,1.1-5.1,2.8-6.1,6.3h-0.4l-3.4-2.3c0.4-1.8,1-3.3,1.9-4.4c-0.5-0.2-1.1-0.4-1.8-0.4c-2.5,0-4.6,2.3-4.6,5.2
		c0,3.3,2.6,5.4,7.5,7l-1.2,4l-0.3,0.1c-5.2-2.7-10-8.3-10-13.6c0-4.2,2.8-6.6,6.2-6.6c2.3,0,3.8,0.9,6,2.7c1.5-1,3.5-1.8,6.3-2.3
		V131h-19.9L593.7,127.5z"/>
	<path id="XMLID_78_" class="st0" d="M621.7,127.5l0.4-0.5h32.4l1.7,3.5l-0.4,0.5h-4.4l0.1,22.5l-0.4,0.3l-4-1.2l0.1-5.6
		c-0.8,0.4-1.5,0.6-2.5,0.6c-1.8,0-3.8-0.8-5.8-2.5c-2-1.9-3.1-3.9-3.1-6c0-3.4,2.3-5.7,6.2-5.7c1.7,0,3.3,0.3,5.2,0.9V131h-13.4
		c0.1,1.2,0.2,2.4,0.2,3.7c0,3.9-1.4,6.7-3.7,8.6c2.6,2.5,6.3,4.5,10.5,6.1l-1.9,4.6h-0.3c-6.3-4.1-11.1-8.6-13.8-13.4
		c-0.3-0.5-0.4-1-0.4-1.5c0-0.6,0.3-1.2,0.7-1.7c0.4-0.4,1-0.6,2.1-0.6c0.6,0,1.1,0,2,0.1c0.5-0.9,0.8-2,0.8-3.9
		c0-0.7-0.1-1.3-0.1-2h-6.3L621.7,127.5z M647.2,137.2c-0.8-0.1-1.3-0.1-1.9-0.1c-2.8,0-5.5,1.7-5.5,4.2c0,1.5,1,2.5,2.9,2.5
		c1.1,0,2.1-0.3,3.1-1s1.4-1.4,1.4-2.8V137.2z"/>
	<path id="XMLID_81_" class="st0" d="M653.6,127.5l0.4-0.5h24l1.7,3.5l-0.4,0.5h-4.4l0.1,22.5l-0.4,0.3l-4-1.2l0.1-12
		c-1.2-0.1-2.1-0.1-3.3-0.1c-1.4,0-2.9,0.1-3.7,0.4c0.2,1.2,0.2,2.1,0.2,2.8c0,0.9-0.1,1.5-0.7,2c-0.5,0.4-1,0.6-1.5,0.6
		c-0.9,0-2-0.7-3.5-2.2c-1.4-1.5-2.1-2.8-2.1-3.9c0-0.7,0.4-4,7.1-4c2.1,0,4.6,0.2,7.5,0.6V131h-15.4L653.6,127.5z"/>
	<path id="XMLID_83_" class="st0" d="M677.1,127.5l0.4-0.5h31.4l1.7,3.5l-0.4,0.5h-14c0.2,1.2,0.4,2.5,0.4,3.2
		c0,1.9-0.5,3.2-1.3,4.3c0.3,0.3,0.5,0.6,0.8,0.9c1.8-1.2,3.5-1.9,5.3-1.9c1.6,0,3.1,0.9,4.5,2.4c1.9,2,2.6,3.8,2.6,5.8
		c0,2.5-1,5-2.6,7.6h-0.3l-4.1-2.7c2-3,3.3-5.6,3.3-7.3c0-1.2-0.4-1.8-1.4-1.8c-1.5,0-3.1,0.9-4.8,2.4c0.2,0.8,0.3,1.6,0.3,2.3
		c0,3.8-3.5,6.8-7.7,6.8c-4.1,0-8.4-3.7-12-12v-0.4l2-1.1c2.4,5.6,5.3,8.9,8.7,8.9c2.7,0,5.5-2.6,5.5-5.3c0-1.4-0.9-2.1-2.7-2.1
		c-1,0-2.9,0.4-5.2,1l-2.7-3.8l0.3-0.5c5.5-1.2,7.5-1.9,7.5-5.5c0-0.5,0-0.9-0.1-1.3h-13.6L677.1,127.5z"/>
</g>
<g id="XMLID_14_">
</g>
<g id="XMLID_27_">
</g>
<g id="XMLID_30_">
</g>
<g id="XMLID_208_">
</g>
<g id="XMLID_209_">
</g>
<g id="XMLID_210_">
</g>
<g id="XMLID_211_">
</g>
<g id="XMLID_212_">
</g>
<g id="XMLID_213_">
</g>
<g id="XMLID_214_">
</g>
<g id="XMLID_215_">
</g>
<g id="XMLID_216_">
</g>
<g id="XMLID_217_">
</g>
<g id="XMLID_218_">
</g>
<g id="XMLID_219_">
</g>
</svg>
